<mxfile host="app.diagrams.net" modified="2024-06-15T23:20:49.828Z" agent="Mozilla/5.0 (Windows NT 10.0; Win64; x64) AppleWebKit/537.36 (KHTML, like Gecko) Chrome/122.0.0.0 YaBrowser/24.4.0.0 Safari/537.36" etag="Mr7R9mZ0vbbGc8p8-b-c" version="23.1.5" type="device">
  <diagram id="C5RBs43oDa-KdzZeNtuy" name="Page-1">
    <mxGraphModel dx="3010" dy="799" grid="1" gridSize="10" guides="1" tooltips="1" connect="1" arrows="1" fold="1" page="1" pageScale="1" pageWidth="827" pageHeight="1169" math="0" shadow="0">
      <root>
        <mxCell id="WIyWlLk6GJQsqaUBKTNV-0" />
        <mxCell id="WIyWlLk6GJQsqaUBKTNV-1" parent="WIyWlLk6GJQsqaUBKTNV-0" />
        <mxCell id="A4ARVa1vCdYeatAgK3-w-33" style="edgeStyle=orthogonalEdgeStyle;rounded=0;orthogonalLoop=1;jettySize=auto;html=1;exitX=0.5;exitY=1;exitDx=0;exitDy=0;entryX=0.5;entryY=0;entryDx=0;entryDy=0;" edge="1" parent="WIyWlLk6GJQsqaUBKTNV-1" source="A4ARVa1vCdYeatAgK3-w-0" target="A4ARVa1vCdYeatAgK3-w-3">
          <mxGeometry relative="1" as="geometry" />
        </mxCell>
        <mxCell id="A4ARVa1vCdYeatAgK3-w-0" value="Начало&amp;nbsp;" style="ellipse;whiteSpace=wrap;html=1;" vertex="1" parent="WIyWlLk6GJQsqaUBKTNV-1">
          <mxGeometry x="-147.5" y="270" width="120" height="70" as="geometry" />
        </mxCell>
        <mxCell id="A4ARVa1vCdYeatAgK3-w-31" style="edgeStyle=orthogonalEdgeStyle;rounded=0;orthogonalLoop=1;jettySize=auto;html=1;exitX=0.5;exitY=1;exitDx=0;exitDy=0;entryX=0.5;entryY=0;entryDx=0;entryDy=0;" edge="1" parent="WIyWlLk6GJQsqaUBKTNV-1" source="A4ARVa1vCdYeatAgK3-w-3" target="A4ARVa1vCdYeatAgK3-w-4">
          <mxGeometry relative="1" as="geometry" />
        </mxCell>
        <mxCell id="A4ARVa1vCdYeatAgK3-w-3" value="Ввод данных: любое&amp;nbsp;&lt;br&gt;русское слово" style="shape=parallelogram;perimeter=parallelogramPerimeter;whiteSpace=wrap;html=1;fixedSize=1;" vertex="1" parent="WIyWlLk6GJQsqaUBKTNV-1">
          <mxGeometry x="-162.5" y="360" width="150" height="70" as="geometry" />
        </mxCell>
        <mxCell id="A4ARVa1vCdYeatAgK3-w-29" style="edgeStyle=orthogonalEdgeStyle;rounded=0;orthogonalLoop=1;jettySize=auto;html=1;exitX=0.5;exitY=1;exitDx=0;exitDy=0;entryX=0.5;entryY=0;entryDx=0;entryDy=0;" edge="1" parent="WIyWlLk6GJQsqaUBKTNV-1" source="A4ARVa1vCdYeatAgK3-w-4" target="A4ARVa1vCdYeatAgK3-w-7">
          <mxGeometry relative="1" as="geometry" />
        </mxCell>
        <mxCell id="A4ARVa1vCdYeatAgK3-w-4" value="с помощь алгоритма&lt;br&gt;last_letter&amp;nbsp;&lt;br&gt;получаем последнюю букву в слове" style="shape=process;whiteSpace=wrap;html=1;backgroundOutline=1;" vertex="1" parent="WIyWlLk6GJQsqaUBKTNV-1">
          <mxGeometry x="-170" y="450" width="165" height="90" as="geometry" />
        </mxCell>
        <mxCell id="A4ARVa1vCdYeatAgK3-w-7" value="вычислительный блок выполняет проверку&amp;nbsp;&lt;br&gt;на ДА или НЕТ&lt;br&gt;согласных букв(а,е,ё,и,о,у,ы,э,ю,я)" style="rounded=0;whiteSpace=wrap;html=1;" vertex="1" parent="WIyWlLk6GJQsqaUBKTNV-1">
          <mxGeometry x="-212.5" y="560" width="250" height="120" as="geometry" />
        </mxCell>
        <mxCell id="A4ARVa1vCdYeatAgK3-w-26" style="edgeStyle=orthogonalEdgeStyle;rounded=0;orthogonalLoop=1;jettySize=auto;html=1;exitX=0;exitY=0.5;exitDx=0;exitDy=0;entryX=0.5;entryY=0;entryDx=0;entryDy=0;" edge="1" parent="WIyWlLk6GJQsqaUBKTNV-1" source="A4ARVa1vCdYeatAgK3-w-8" target="A4ARVa1vCdYeatAgK3-w-17">
          <mxGeometry relative="1" as="geometry">
            <mxPoint x="-310" y="759.9473684210527" as="targetPoint" />
          </mxGeometry>
        </mxCell>
        <mxCell id="A4ARVa1vCdYeatAgK3-w-8" value="итог проверки" style="rhombus;whiteSpace=wrap;html=1;" vertex="1" parent="WIyWlLk6GJQsqaUBKTNV-1">
          <mxGeometry x="-190" y="720" width="205" height="80" as="geometry" />
        </mxCell>
        <mxCell id="A4ARVa1vCdYeatAgK3-w-9" value="" style="endArrow=classic;html=1;rounded=0;entryX=0.5;entryY=0;entryDx=0;entryDy=0;" edge="1" parent="WIyWlLk6GJQsqaUBKTNV-1" target="A4ARVa1vCdYeatAgK3-w-8">
          <mxGeometry width="50" height="50" relative="1" as="geometry">
            <mxPoint x="-87.5" y="680" as="sourcePoint" />
            <mxPoint x="-90" y="720" as="targetPoint" />
          </mxGeometry>
        </mxCell>
        <mxCell id="A4ARVa1vCdYeatAgK3-w-13" value="Да" style="text;html=1;align=center;verticalAlign=middle;resizable=0;points=[];autosize=1;strokeColor=none;fillColor=none;" vertex="1" parent="WIyWlLk6GJQsqaUBKTNV-1">
          <mxGeometry x="20" y="778" width="40" height="30" as="geometry" />
        </mxCell>
        <mxCell id="A4ARVa1vCdYeatAgK3-w-14" value="нет" style="text;html=1;align=center;verticalAlign=middle;resizable=0;points=[];autosize=1;strokeColor=none;fillColor=none;" vertex="1" parent="WIyWlLk6GJQsqaUBKTNV-1">
          <mxGeometry x="-270" y="778" width="40" height="30" as="geometry" />
        </mxCell>
        <mxCell id="A4ARVa1vCdYeatAgK3-w-17" value="Согласная" style="rounded=0;whiteSpace=wrap;html=1;" vertex="1" parent="WIyWlLk6GJQsqaUBKTNV-1">
          <mxGeometry x="-370" y="800" width="120" height="60" as="geometry" />
        </mxCell>
        <mxCell id="A4ARVa1vCdYeatAgK3-w-20" value="вывод&amp;nbsp;&lt;br&gt;результатов" style="shape=parallelogram;perimeter=parallelogramPerimeter;whiteSpace=wrap;html=1;fixedSize=1;" vertex="1" parent="WIyWlLk6GJQsqaUBKTNV-1">
          <mxGeometry x="-147.5" y="890" width="120" height="60" as="geometry" />
        </mxCell>
        <mxCell id="A4ARVa1vCdYeatAgK3-w-21" value="" style="endArrow=classic;html=1;rounded=0;exitX=0.442;exitY=1;exitDx=0;exitDy=0;exitPerimeter=0;" edge="1" parent="WIyWlLk6GJQsqaUBKTNV-1" source="A4ARVa1vCdYeatAgK3-w-20" target="A4ARVa1vCdYeatAgK3-w-22">
          <mxGeometry width="50" height="50" relative="1" as="geometry">
            <mxPoint x="-60" y="1100" as="sourcePoint" />
            <mxPoint x="-110" y="1120" as="targetPoint" />
          </mxGeometry>
        </mxCell>
        <mxCell id="A4ARVa1vCdYeatAgK3-w-22" value="конец" style="ellipse;whiteSpace=wrap;html=1;" vertex="1" parent="WIyWlLk6GJQsqaUBKTNV-1">
          <mxGeometry x="-160" y="1000" width="120" height="80" as="geometry" />
        </mxCell>
        <mxCell id="A4ARVa1vCdYeatAgK3-w-16" value="Гласная" style="rounded=0;whiteSpace=wrap;html=1;" vertex="1" parent="WIyWlLk6GJQsqaUBKTNV-1">
          <mxGeometry x="60" y="800" width="120" height="60" as="geometry" />
        </mxCell>
        <mxCell id="A4ARVa1vCdYeatAgK3-w-27" value="" style="endArrow=classic;html=1;rounded=0;exitX=1;exitY=0.5;exitDx=0;exitDy=0;entryX=0.5;entryY=0;entryDx=0;entryDy=0;" edge="1" parent="WIyWlLk6GJQsqaUBKTNV-1" source="A4ARVa1vCdYeatAgK3-w-8" target="A4ARVa1vCdYeatAgK3-w-16">
          <mxGeometry width="50" height="50" relative="1" as="geometry">
            <mxPoint x="100" y="830" as="sourcePoint" />
            <mxPoint x="120" y="760" as="targetPoint" />
            <Array as="points">
              <mxPoint x="120" y="760" />
            </Array>
          </mxGeometry>
        </mxCell>
        <mxCell id="A4ARVa1vCdYeatAgK3-w-28" value="" style="endArrow=classic;html=1;rounded=0;" edge="1" parent="WIyWlLk6GJQsqaUBKTNV-1">
          <mxGeometry width="50" height="50" relative="1" as="geometry">
            <mxPoint x="100" y="830" as="sourcePoint" />
            <mxPoint x="150" y="780" as="targetPoint" />
          </mxGeometry>
        </mxCell>
        <mxCell id="A4ARVa1vCdYeatAgK3-w-30" value="" style="endArrow=classic;html=1;rounded=0;" edge="1" parent="WIyWlLk6GJQsqaUBKTNV-1">
          <mxGeometry width="50" height="50" relative="1" as="geometry">
            <mxPoint x="100" y="830" as="sourcePoint" />
            <mxPoint x="150" y="780" as="targetPoint" />
          </mxGeometry>
        </mxCell>
      </root>
    </mxGraphModel>
  </diagram>
</mxfile>
